<svg xmlns="http://www.w3.org/2000/svg" width="20" height="20" viewBox="0 0 24 24" fill="none" stroke="currentColor" stroke-width="1.6" stroke-linecap="round" stroke-linejoin="round">
  <circle cx="12" cy="12" r="3" />
  <path d="M19.4 15a1.65 1.65 0 0 0 .33 1.82l.06.06a2 2 0 1 1-2.83 2.83l-.06-.06a1.65 1.65 0 0 0-1.82-.33 1.65 1.65 0 0 0-1 1.51V21a2 2 0 1 1-4 0v-.09a1.65 1.65 0 0 0-1-1.51 1.65 1.65 0 0 0-1.82.33l-.06.06A2 2 0 1 1 2.4 17.82l.06-.06a1.65 1.65 0 0 0 .33-1.82 1.65 1.65 0 0 0-1.51-1H3a2 2 0 1 1 0-4h.09c.7 0 1.32-.36 1.51-1a1.65 1.65 0 0 0-.33-1.82L4.2 4.6A2 2 0 1 1 7 1.77l.06.06A1.65 1.65 0 0 0 8.88 2.16c.64.19 1.24-.22 1.51-1H12a2 2 0 1 1 4 0v.09c.7 0 1.32.36 1.51 1a1.65 1.65 0 0 0 1.82.33l.06-.06A2 2 0 1 1 21.6 6.18l-.06.06a1.65 1.65 0 0 0-.33 1.82c.19.64.8 1.19 1.51 1.19H21a2 2 0 1 1 0 4h-.09c-.7 0-1.32.36-1.51 1z"/>
</svg>
